<?xml version="1.0" standalone="no"?>

<!DOCTYPE svg PUBLIC "-//W3C//DTD SVG 20010904//EN"

 "http://www.w3.org/TR/2001/REC-SVG-20010904/DTD/svg10.dtd">

<svg version="1.0" xmlns="http://www.w3.org/2000/svg"

 width="736.000000pt" height="1024.000000pt" viewBox="0 0 736.000000 1024.000000"

 preserveAspectRatio="xMidYMid meet">

<path fill="#000000" stroke="none" d="
M216 1023

C153 1023 149 1022 147 1021

C143 1018 141 1014 139 1006

C136 992 138 978 146 963

C150 955 152 952 160 944

C177 927 197 918 226 916

L236 916

L235 914

C235 912 224 885 223 880

C222 877 221 876 216 875

C207 872 192 864 183 858

C142 828 120 776 123 718

C126 665 155 615 196 593

C199 591 202 589 202 589

L202 589

L192 585

C179 579 155 567 142 559

C87 524 53 481 41 429

C39 421 39 417 39 396

C38 373 38 373 33 369

C-9 335 -11 273 30 238

C44 227 65 219 84 219

C100 219 121 226 133 235

C136 237 138 239 139 239

C139 239 143 237 148 234

C202 202 273 182 343 179

C355 179 358 178 359 177

C359 176 371 141 384 99

C397 56 409 20 410 18

C413 14 417 12 422 12

C424 12 454 19 489 27

C524 35 553 42 554 42

C554 42 556 40 557 37

C569 15 592 1 618 1

C655 1 686 31 686 69

C686 100 668 125 638 135

C629 138 614 139 603 137

C584 132 567 120 558 103

C553 95 551 88 550 78

L548 70

L490 56

C458 48 432 42 431 42

C431 43 388 178 388 178

L388 179

L397 179

C462 184 516 198 565 223

C572 227 582 232 587 235

C592 238 596 240 596 240

C597 240 599 238 602 236

C605 234 611 230 617 227

C657 208 706 224 727 265

C745 302 735 345 701 370

C695 375 695 375 694 398

C694 417 694 422 692 430

C689 444 685 454 679 467

C656 514 609 555 545 583

L531 589

L538 593

C579 616 608 664 611 718

C614 775 592 827 552 857

C543 864 527 872 518 875

C511 877 511 877 508 885

C507 890 504 898 501 904

C499 910 497 916 497 916

L497 917

L500 916

C505 915 525 918 534 921

C572 932 598 963 596 997

C595 1006 593 1014 591 1018

C587 1023 596 1023 432 1023

C350 1023 253 1023 216 1023

Z

"/>

<path fill="#343434" stroke="none" d="
M288 1023

C291 1023 297 1023 300 1023

L307 1024

L294 1024

L282 1024

L288 1023

Z

M345 1023

C357 1023 377 1023 388 1023

L410 1024

L367 1024

L324 1024

L345 1023

Z

M434 1023

C438 1023 444 1023 448 1023

L455 1024

L441 1024

L428 1024

L434 1023

Z

M165 994

C164 991 166 982 169 976

C176 963 192 951 210 946

C219 943 237 943 246 945

C252 946 252 947 255 951

C262 963 282 991 286 994

L287 994

L286 995

C286 996 262 996 226 996

L166 996

L165 994

Z

M326 993

C293 971 264 923 245 860

C223 788 217 698 227 615

C228 606 229 598 230 598

C230 598 238 600 249 602

C282 611 303 614 338 616

C370 618 405 617 440 611

C455 609 464 607 484 602

C495 600 503 598 503 598

C504 598 505 606 506 615

C520 726 503 847 462 925

C446 956 427 980 407 993

C403 996 403 996 367 996

C331 996 331 996 326 993

Z

M447 995

L446 994

L447 994

C451 991 472 962 478 951

C480 948 481 947 486 945

C495 943 514 943 524 946

C540 950 553 958 561 969

C565 976 569 987 569 992

L569 996

L508 996

C471 996 447 996 447 995

Z

M205 840

C197 835 183 823 176 813

C164 797 155 775 151 754

C149 742 149 717 151 706

C155 684 164 662 176 646

C182 638 196 624 198 624

L199 624

L199 634

C195 686 195 719 200 763

C202 787 208 823 212 838

C213 841 213 843 212 843

L211 844

L205 840

Z

M520 842

C528 808 531 788 533 763

C538 719 538 686 534 634

L534 624

L535 624

C538 624 551 637 558 646

C562 651 567 660 570 666

C580 687 584 705 584 730

C584 754 580 772 570 793

C563 807 555 818 544 829

C536 836 524 844 521 844

L520 844

L520 842

Z

M338 590

C292 587 248 578 210 562

C128 530 75 476 66 416

C64 404 65 381 68 370

C75 342 90 317 114 293

C160 248 229 219 315 208

C335 206 398 206 419 208

C491 217 550 239 596 274

C610 284 629 303 638 315

C651 332 660 351 665 371

C667 378 667 382 667 399

C667 420 666 427 659 444

C635 506 564 556 472 578

C429 589 383 593 338 590

Z

M386 538

C413 536 434 532 453 524

C470 517 489 502 489 496

C490 488 488 484 483 481

C477 478 472 480 463 488

C449 499 428 507 402 511

C394 511 381 512 368 512

C320 512 295 505 269 484

C264 480 261 480 257 480

C245 483 243 496 253 505

C273 524 307 536 348 538

C368 539 367 539 386 538

Z

M684 342

C672 314 654 288 630 267

C624 263 620 258 620 257

C621 253 641 246 653 246

C660 246 672 249 679 253

C687 257 699 269 703 277

C711 294 711 311 703 328

C699 334 689 347 687 347

L686 347

L684 342

Z

M42 340

C33 330 27 315 27 302

C27 295 30 285 33 277

C37 269 48 258 56 253

C72 244 95 244 111 253

C113 254 115 256 115 256

C115 257 113 259 110 262

C102 267 85 284 78 293

C66 308 56 326 50 341

L48 345

L47 345

C47 345 44 343 42 340

Z

M23 245

C23 244 24 244 25 243

L27 242

L25 243

C24 244 24 245 23 245

L23 245

L23 245

Z

M711 243

L710 242

L711 243

C712 244 713 244 713 245

L713 245

L713 245

C712 245 712 244 711 243

Z

M605 109

C594 105 585 97 580 86

C574 74 575 58 583 47

C587 40 594 34 601 31

C606 29 608 29 618 29

C628 29 629 29 635 32

C644 36 651 43 655 52

C658 58 658 59 658 69

C658 79 658 81 656 86

C653 93 645 102 639 105

C629 111 615 113 605 109

Z

"/>

<path fill="#6c6c6c" stroke="none" d="
M166 994

C165 991 167 983 170 976

C176 963 191 952 209 947

C215 945 219 945 230 945

C248 945 251 945 255 953

C260 961 268 973 278 985

L286 995

L284 995

C282 996 256 996 224 996

L167 996

L166 994

Z

M451 995

L447 995

L455 985

C463 975 473 961 478 952

C481 948 482 947 486 946

C494 944 516 944 524 946

C548 953 567 971 567 989

L568 996

L512 996

C481 996 454 995 451 995

Z

M327 993

C306 980 282 949 265 912

C228 832 215 725 228 615

C229 607 230 600 230 599

L231 598

L243 602

C281 612 322 617 367 617

C411 617 452 612 490 602

L502 598

L503 599

C503 600 504 607 505 615

C515 702 509 786 487 861

C485 867 483 874 482 876

C482 878 479 884 477 890

C460 936 433 975 407 992

C403 995 403 995 367 995

C332 995 330 995 327 993

Z

M203 838

C174 819 155 783 151 742

C148 708 157 672 177 646

C181 641 194 627 196 626

L198 625

L198 635

C194 698 195 739 202 789

C204 801 209 828 212 841

L212 843

L211 843

C211 843 207 841 203 838

Z

M521 841

C534 784 539 726 537 669

C536 655 536 639 535 635

C535 630 535 625 535 625

L536 624

L541 628

C560 645 572 666 579 693

C594 748 573 810 531 838

C527 841 523 843 522 843

L521 843

L521 841

Z

M339 589

C263 584 200 564 150 531

C104 500 75 462 67 420

C65 410 65 389 67 378

C74 335 106 293 154 262

C168 254 192 241 210 235

C306 197 427 197 524 235

C596 263 645 308 662 361

C666 374 667 384 667 399

C667 448 638 494 584 531

C538 561 480 580 415 588

C401 589 351 590 339 589

Z

M410 537

C441 532 464 522 481 508

C488 502 490 498 490 493

C490 488 487 483 483 481

C477 478 473 479 465 486

C454 495 443 500 428 505

C395 514 340 514 308 505

C293 500 283 495 271 485

C268 482 263 480 261 480

C254 478 246 485 246 493

C246 498 248 502 256 508

C276 525 300 534 341 538

C350 539 401 538 410 537

Z

M685 343

C683 338 675 321 670 314

C660 298 647 282 629 266

L620 258

L621 257

C622 255 633 250 639 248

C642 248 648 247 653 247

C668 247 680 252 692 263

C703 275 708 287 708 302

C708 311 706 318 702 327

C699 333 689 346 687 346

L686 346

L685 343

Z

M42 339

C36 333 31 322 29 314

C25 296 31 277 44 263

C56 252 68 247 83 247

C93 247 99 248 107 252

L114 255

L114 256

C114 257 112 259 109 261

C103 266 83 287 77 294

C68 305 61 316 54 330

C50 338 47 344 47 344

C46 344 44 342 42 339

Z

M605 109

C595 105 585 96 580 86

C578 81 578 79 578 69

C578 59 578 58 581 52

C589 36 606 26 624 29

C651 33 666 62 655 87

C651 94 643 102 635 106

C629 109 628 109 619 110

C613 110 608 109 605 109

Z

"/>

<path fill="#ff4602" stroke="none" d="
M166 989

C168 970 186 953 211 947

C220 944 239 944 246 946

C251 947 251 948 258 958

C265 969 274 981 280 989

C283 991 285 994 285 994

L285 995

L225 995

L166 995

L166 989

Z

M325 991

C288 966 254 902 237 825

C223 759 220 682 229 612

C229 605 230 599 231 599

C231 599 235 600 240 601

C262 608 293 613 322 616

C338 618 395 618 411 616

C440 613 471 608 493 601

C498 600 502 599 502 599

C503 599 504 605 504 612

C512 672 511 740 501 799

C489 869 466 928 435 966

C428 974 417 984 409 990

C402 995 402 995 367 995

C331 995 331 995 325 991

Z

M448 994

C448 994 450 991 453 989

C459 981 468 969 475 958

C482 948 482 947 487 946

C496 944 514 945 524 947

C542 952 557 963 563 976

C566 981 567 986 568 989

L568 995

L508 995

L448 995

L448 994

Z

M522 842

C522 841 522 842 525 825

C537 770 541 706 536 647

C536 635 535 625 535 625

L536 625

L542 630

C563 648 578 678 582 711

C584 724 583 749 580 762

C571 798 553 825 526 841

L522 843

L522 842

Z

M203 837

C184 825 168 803 160 780

C152 760 149 732 152 711

C156 678 171 648 192 630

L197 626

L198 626

C198 626 197 636 196 648

C192 706 197 770 208 825

C210 833 211 840 211 841

L211 842

L210 842

C210 842 206 840 203 837

Z

M344 589

C266 586 190 561 137 521

C123 511 101 489 93 477

C85 466 75 447 72 435

C50 365 92 293 180 249

C220 228 264 216 317 209

C338 207 395 207 417 209

C524 222 610 267 648 332

C667 363 672 401 661 435

C658 447 648 466 640 477

C632 489 610 511 597 521

C551 555 492 577 424 586

C411 588 367 590 363 590

C362 590 354 589 344 589

Z

M406 538

C420 536 428 534 439 530

C465 522 489 506 491 495

C491 490 489 484 484 481

C480 478 472 479 468 482

C453 494 446 498 431 503

C413 509 401 510 369 510

C339 511 330 510 313 505

C296 501 283 494 268 482

C264 479 263 479 258 479

C254 480 252 480 250 482

C246 486 245 491 245 495

C247 503 262 515 279 523

C299 533 314 536 349 539

C357 540 395 539 406 538

Z

M685 342

C682 334 673 318 668 309

C657 293 639 273 625 261

L621 258

L622 257

C623 255 636 249 643 248

C661 245 680 251 692 264

C710 282 713 311 699 332

C695 338 689 345 687 345

L686 345

L685 342

Z

M43 340

C34 330 29 317 29 303

C29 262 70 236 106 252

C110 254 113 256 113 257

C113 257 111 259 109 261

C103 266 87 281 79 290

C67 305 56 323 50 337

L48 343

L47 343

C46 343 45 342 43 340

Z

M607 108

C587 103 574 83 578 63

C580 49 588 39 601 33

C607 30 608 30 618 30

C627 30 628 30 634 33

C643 37 649 43 654 52

C657 59 657 60 657 69

C657 78 657 80 655 85

C646 104 627 114 607 108

Z

"/>

<path fill="#ab9f9a" stroke="none" d="
M166 989

C168 970 186 953 211 947

C220 944 239 944 246 946

C251 947 251 948 258 958

C265 969 274 981 280 989

C283 991 285 994 285 994

L285 995

L225 995

L166 995

L166 989

Z

M325 991

C288 966 254 902 237 825

C223 759 220 682 229 612

C229 605 230 599 231 599

C231 599 235 600 240 601

C262 608 293 613 322 616

C338 618 395 618 411 616

C440 613 471 608 493 601

C498 600 502 599 502 599

C503 599 504 605 504 612

C512 672 511 740 501 799

C489 869 466 928 435 966

C428 974 417 984 409 990

C402 995 402 995 367 995

C331 995 331 995 325 991

Z

M448 994

C448 994 450 991 453 989

C459 981 468 969 475 958

C482 948 482 947 487 946

C496 944 514 945 524 947

C542 952 557 963 563 976

C566 981 567 986 568 989

L568 995

L508 995

L448 995

L448 994

Z

M522 842

C522 841 522 842 525 825

C537 770 541 706 536 647

C536 635 535 625 535 625

L536 625

L542 630

C563 648 578 678 582 711

C584 724 583 749 580 762

C571 798 553 825 526 841

L522 843

L522 842

Z

M203 837

C184 825 168 803 160 780

C152 760 149 732 152 711

C156 678 171 648 192 630

L197 626

L198 626

C198 626 197 636 196 648

C192 706 197 770 208 825

C210 833 211 840 211 841

L211 842

L210 842

C210 842 206 840 203 837

Z

M344 589

C266 586 190 561 137 521

C123 511 101 489 93 477

C85 466 75 447 72 435

C50 365 92 293 180 249

C220 228 264 216 317 209

C338 207 395 207 417 209

C524 222 610 267 648 332

C667 363 672 401 661 435

C658 447 648 466 640 477

C632 489 610 511 597 521

C551 555 492 577 424 586

C411 588 367 590 363 590

C362 590 354 589 344 589

Z

M406 538

C420 536 428 534 439 530

C465 522 489 506 491 495

C491 490 489 484 484 481

C480 478 472 479 468 482

C453 494 446 498 431 503

C413 509 401 510 369 510

C339 511 330 510 313 505

C296 501 283 494 268 482

C264 479 263 479 258 479

C254 480 252 480 250 482

C246 486 245 491 245 495

C247 503 262 515 279 523

C299 533 314 536 349 539

C357 540 395 539 406 538

Z

M271 406

C280 404 286 400 293 394

C313 373 313 342 292 322

C285 315 276 310 267 308

C233 301 200 334 207 368

C212 391 233 408 257 408

C262 408 268 407 271 406

Z

M493 407

C501 404 508 400 515 394

C535 373 535 342 514 322

C501 309 485 305 468 309

C443 315 425 340 429 365

C433 390 454 408 479 408

C484 408 490 407 493 407

Z

M685 342

C682 334 673 318 668 309

C657 293 639 273 625 261

L621 258

L622 257

C623 255 636 249 643 248

C661 245 680 251 692 264

C710 282 713 311 699 332

C695 338 689 345 687 345

L686 345

L685 342

Z

M43 340

C34 330 29 317 29 303

C29 262 70 236 106 252

C110 254 113 256 113 257

C113 257 111 259 109 261

C103 266 87 281 79 290

C67 305 56 323 50 337

L48 343

L47 343

C46 343 45 342 43 340

Z

M607 108

C587 103 574 83 578 63

C580 49 588 39 601 33

C607 30 608 30 618 30

C627 30 628 30 634 33

C643 37 649 43 654 52

C657 59 657 60 657 69

C657 78 657 80 655 85

C646 104 627 114 607 108

Z

"/>

<path fill="#cbc5c3" stroke="none" d="
M167 994

C166 994 167 991 167 987

C170 970 186 955 208 948

C214 946 218 946 230 946

C248 946 251 946 254 953

C259 961 267 973 276 984

C280 989 284 994 284 994

L284 995

L226 995

C193 995 167 995 167 994

Z

M326 991

C318 986 296 964 289 954

C273 929 261 906 250 873

C239 837 231 801 226 755

C224 731 223 673 225 647

C227 628 230 603 230 600

L231 599

L240 602

C279 613 321 618 367 618

C412 618 454 613 493 602

L502 599

L503 600

C503 603 506 628 508 647

C510 672 509 730 507 754

C500 817 488 866 467 912

C452 945 432 972 410 989

C403 995 403 995 367 995

C332 995 332 995 326 991

Z

M449 994

C449 994 452 990 455 986

C463 977 474 961 479 953

C482 946 485 946 504 946

C520 945 526 947 539 953

C555 961 566 975 567 989

L567 995

L508 995

L449 995

L449 994

Z

M522 840

C532 792 536 762 538 718

C539 695 538 657 536 637

C536 631 535 626 536 626

L536 626

L538 627

C541 629 556 645 560 652

C570 666 577 685 581 704

C583 717 583 743 581 756

C575 785 563 808 544 826

C538 832 525 842 523 842

L522 842

L522 840

Z

M203 837

C199 835 193 830 190 826

C145 783 138 706 174 652

C179 644 194 627 196 627

L198 627

L197 637

C194 672 194 725 198 758

C200 785 207 827 211 839

L211 841

L210 841

C209 841 206 839 203 837

Z

M331 588

C291 585 250 576 215 563

C187 552 152 533 131 516

C85 479 61 430 67 384

C70 360 80 337 96 315

C103 306 121 288 131 280

C178 242 243 218 320 209

C342 207 391 207 413 209

C502 219 575 250 622 299

C648 325 662 353 666 384

C670 416 660 450 638 480

C618 507 588 530 550 549

C505 571 455 584 400 588

C384 589 347 589 331 588

Z

M409 538

C437 533 460 525 477 512

C487 504 491 499 491 493

C491 484 485 478 475 479

C471 480 469 480 466 483

C442 504 408 512 359 511

C317 509 293 502 270 483

C264 478 259 478 253 480

C248 482 246 486 245 492

C245 498 247 502 257 510

C276 526 303 535 339 539

C352 540 397 539 409 538

Z

M269 407

C291 402 308 381 308 358

C308 336 292 315 271 309

C263 306 251 307 243 309

C222 316 206 336 206 358

C206 372 211 383 221 393

C234 406 251 412 269 407

Z

M491 407

C513 402 530 381 530 358

C530 336 514 315 493 309

C485 306 473 307 465 309

C444 316 428 336 428 358

C428 372 433 383 443 393

C456 406 474 412 491 407

Z

M686 344

C686 342 676 321 671 314

C661 297 643 277 627 263

L621 257

L627 254

C636 250 642 248 653 248

C668 248 680 253 691 264

C712 285 713 317 693 339

C690 342 687 345 687 345

L686 345

L686 344

Z

M42 338

C34 329 29 316 29 302

C29 287 34 275 45 264

C56 253 68 248 84 248

C93 248 100 250 108 254

L113 256

L106 262

C82 283 64 306 52 332

C49 338 47 343 47 343

C46 343 44 341 42 338

Z

M611 109

C603 108 594 103 589 97

C567 74 579 36 611 30

C637 25 662 50 657 76

C653 98 632 113 611 109

Z

"/>

<path fill="#e8e2e0" stroke="none" d="
M167 991

C167 990 168 986 169 983

C176 959 209 941 240 946

C251 948 251 948 254 953

C261 965 273 982 281 990

L284 994

L226 994

L167 994

L167 991

Z

M328 992

C257 945 214 795 227 640

C228 622 231 601 231 600

C232 600 237 601 243 603

C323 624 410 624 490 603

C496 601 501 600 502 600

C502 601 505 622 506 640

C511 694 509 748 500 800

C485 887 452 957 411 988

C403 994 403 994 367 994

C335 994 330 994 328 992

Z

M452 990

C460 982 472 965 479 953

C482 949 482 948 488 947

C497 945 515 945 524 948

C539 952 553 961 560 971

C563 976 567 987 567 991

L567 994

L508 994

L449 994

L452 990

Z

M522 841

C523 840 525 831 526 822

C538 767 542 700 537 642

C536 634 536 627 536 627

L537 626

L545 634

C562 651 574 673 580 700

C582 712 582 747 580 759

C572 796 550 827 524 841

L522 842

L522 841

Z

M203 836

C179 821 162 793 154 759

C152 747 152 712 154 700

C160 674 172 651 188 635

L196 627

L197 627

C197 628 197 634 196 642

C191 700 195 767 207 822

C209 832 210 840 210 840

L209 841

L203 836

Z

M338 588

C280 584 226 570 180 547

C91 501 50 429 73 358

C82 332 99 308 125 286

C172 245 239 219 319 210

C335 208 398 208 414 210

C494 219 561 245 608 286

C646 319 666 357 666 398

C666 424 659 447 643 471

C593 548 468 596 338 588

Z

M402 539

C437 535 467 523 484 506

C489 501 491 499 491 496

C493 487 486 478 477 478

C473 478 469 480 460 487

C451 495 434 502 418 506

C393 512 342 511 317 506

C300 502 285 495 276 487

C264 478 260 477 254 479

C247 482 243 489 245 496

C247 505 264 518 283 526

C302 534 324 539 353 540

C363 541 391 540 402 539

Z

M270 407

C287 403 301 389 306 373

C309 365 309 352 306 343

C301 325 284 310 265 307

C241 303 215 320 208 344

C206 351 206 365 208 372

C215 398 244 414 270 407

Z

M492 407

C501 405 508 401 515 394

C526 384 530 373 530 358

C530 347 528 339 522 330

C514 318 501 309 487 307

C463 303 437 320 430 344

C428 351 428 365 430 372

C437 398 466 414 492 407

Z

M683 335

C678 324 668 307 660 297

C655 290 632 266 625 261

L622 258

L624 256

C627 254 634 251 640 249

C665 244 690 256 701 278

C709 294 709 310 701 326

C698 334 689 344 687 344

C687 344 685 340 683 335

Z

M42 337

C36 330 31 319 30 310

C25 276 53 246 87 248

C95 249 107 252 110 255

L113 257

L109 260

C101 266 86 281 78 291

C68 303 59 317 52 330

C49 337 47 342 46 342

C46 342 44 340 42 337

Z

M607 108

C595 104 587 97 582 86

C579 80 579 79 579 70

C579 61 579 59 581 54

C589 37 602 29 621 30

C631 31 638 34 646 41

C653 49 656 56 657 67

C658 85 650 98 633 106

C626 109 613 110 607 108

Z

"/>

<path fill="#ffffff" stroke="none" d="
M167 989

C169 978 175 968 184 961

C191 955 204 949 213 948

C221 946 237 946 245 947

C250 948 251 949 253 952

C258 960 267 975 275 984

L283 994

L225 994

L167 994

L167 989

Z

M326 990

C323 988 315 981 308 975

C264 930 234 843 226 738

C224 717 225 666 226 645

C228 629 231 601 231 600

C231 600 236 601 242 603

C298 619 368 623 431 615

C449 613 476 607 491 603

C497 601 502 600 502 600

C502 601 506 637 507 649

C508 668 508 718 507 738

C503 792 494 839 479 881

C464 922 447 953 425 975

C418 981 410 988 407 990

C402 994 402 994 367 994

C331 994 331 994 326 990

Z

M458 984

C462 979 469 970 473 964

C483 948 483 948 489 947

C497 946 513 946 521 948

C530 950 545 957 551 962

C559 969 565 979 566 989

L567 994

L508 994

L450 994

L458 984

Z

M523 841

C523 841 525 833 526 824

C530 805 534 779 537 756

C539 732 540 670 538 646

C537 636 536 627 537 627

L537 627

L544 633

C561 650 574 674 580 702

C582 714 582 745 580 757

C572 794 553 823 527 839

L523 841

L523 841

Z

M201 835

C178 819 161 791 154 757

C152 745 152 714 154 702

C160 675 173 650 190 634

L196 628

L196 628

C197 628 196 637 195 647

C193 670 194 732 196 756

C199 783 206 828 210 838

L210 840

L209 840

C209 840 205 838 201 835

Z

M329 587

C286 583 248 574 214 562

C196 555 166 540 152 530

C106 500 78 463 69 422

C67 410 67 386 69 374

C82 316 133 266 211 236

C244 223 281 214 323 210

C339 208 394 208 410 210

C452 214 489 223 522 236

C592 263 641 307 659 357

C664 372 665 381 665 398

C666 421 662 435 651 457

C633 492 600 522 554 546

C514 567 472 579 419 586

C404 587 343 588 329 587

Z

M408 539

C442 533 470 522 486 505

C493 498 494 491 489 484

C483 476 470 476 464 484

C460 488 450 494 442 498

C424 505 406 509 377 510

C331 511 297 504 278 488

C268 480 264 478 260 478

C251 478 245 483 244 491

C244 497 246 502 253 508

C275 527 305 537 346 540

C356 541 398 540 408 539

Z

M269 408

C287 404 303 389 308 370

C312 355 307 336 296 323

C276 301 242 300 221 321

C211 332 205 345 205 358

C205 390 237 416 269 408

Z

M491 408

C514 403 531 382 531 358

C531 336 515 315 494 308

C486 306 474 305 466 308

C443 314 427 335 427 358

C427 390 459 416 491 408

Z

M685 340

C675 314 655 286 631 266

L622 258

L626 255

C637 248 656 246 670 251

C707 264 718 311 692 339

L687 345

L685 340

Z

M44 339

C35 330 30 316 30 303

C30 279 44 259 66 251

C79 247 96 248 108 254

L112 256

L106 262

C82 282 65 304 53 329

L46 342

L44 339

Z

M609 108

C584 102 572 75 582 53

C591 34 612 25 633 33

C641 36 651 46 654 54

C660 70 657 85 646 96

C636 107 622 111 609 108

Z

"/>

</svg>

